# xmcd CD database file
#
# Track frame offsets:
#	150
#	24652
#	51927
#
# Disc length: 1017 seconds
#
# Revision: 0
# Processed by: cddbd v1.5.1PL0 Copyright (c) Steve Scherf et al.
# Submitted via: CDex 1.51
#
DISCID=2003f703
DTITLE=ORIGINAL LOVE - STARS
DYEAR=1999
DGENRE=Japanese Rock
TTITLE0=STARS
TTITLE1=ドラキュラ(Live at AKASAKA BLITZ 1998.12.18)
TTITLE2=STARS オリジナル・カラオケ
EXTD=YEAR: 1999
EXTT0=
EXTT1=
EXTT2=
PLAYORDER=
